<svg width="480" height="264" viewBox="0 0 480 264" fill="none" xmlns="http://www.w3.org/2000/svg">
<g clip-path="url(#clip0_1555_181)">
<path d="M39 261V81H3V51H69V261H39Z" fill="#C4E8FF"/>
<path d="M66 54V258H42V84V78H36H6V54H66ZM72 48H0V84H36V264H72V48Z" fill="#03436A"/>
<path d="M87 261V33H39V3H117V261H87Z" fill="#C4E8FF"/>
<path d="M114 6V258H90V36V30H84H42V6H114ZM120 0H36V36H84V264H120V0Z" fill="#03436A"/>
<path d="M276 261C204.87 261 147 203.13 147 132C147 60.87 204.87 3 276 3C346.128 3 403.368 59.25 404.964 129H374.958C373.368 75.792 329.586 33 276 33C221.412 33 177 77.412 177 132C177 186.588 221.412 231 276 231H477V261H276Z" fill="#C4E8FF"/>
<path d="M276 6C343.464 6 398.718 59.298 401.862 126H377.826C374.706 72.54 330.228 30 276 30C219.756 30 174 75.756 174 132C174 188.244 219.756 234 276 234H474V258H276C206.526 258 150 201.474 150 132C150 62.526 206.526 6 276 6ZM276 0C203.214 0 144 59.214 144 132C144 204.786 203.214 264 276 264H480V228H276C223.068 228 180 184.932 180 132C180 79.068 223.068 36 276 36C328.932 36 372 79.068 372 132H408C408 59.214 348.786 0 276 0Z" fill="#03436A"/>
<path d="M276 201C237.954 201 207 170.046 207 132C207 93.954 237.954 63 276 63C313.038 63 343.362 92.34 344.934 129H314.886C313.35 108.888 296.496 93 276 93C254.496 93 237 110.496 237 132C237 153.504 254.496 171 276 171H477V201H276Z" fill="#C4E8FF"/>
<path d="M276 66C310.374 66 338.688 92.406 341.73 126H317.574C314.652 105.672 297.126 90 276 90C252.84 90 234 108.84 234 132C234 155.16 252.84 174 276 174H474V198H276C239.61 198 210 168.39 210 132C210 95.61 239.61 66 276 66ZM276 60C236.298 60 204 92.298 204 132C204 171.702 236.298 204 276 204H480V168H276C256.146 168 240 151.854 240 132C240 112.146 256.146 96 276 96C295.854 96 312 112.146 312 132H348C348 92.298 315.702 60 276 60Z" fill="#03436A"/>
</g>
<defs>
<clipPath id="clip0_1555_181">
<rect width="480" height="264" fill="white"/>
</clipPath>
</defs>
</svg>
