<svg width="26" height="26" viewBox="0 0 26 26" fill="none" xmlns="http://www.w3.org/2000/svg">
<g clip-path="url(#clip0_1548_446)">
<mask id="mask0_1548_446" style="mask-type:luminance" maskUnits="userSpaceOnUse" x="0" y="0" width="26" height="26">
<path d="M26 0H0V26H26V0Z" fill="white"/>
</mask>
<g mask="url(#mask0_1548_446)">
<path d="M25.3177 20.0587L20.0552 16.5492C19.3874 16.1074 18.4922 16.2528 17.9985 16.8832L16.4656 18.8542C16.2686 19.1139 15.9105 19.1893 15.6255 19.031L15.3339 18.8702C14.3673 18.3433 13.1645 17.6874 10.7413 15.2633C8.31799 12.8391 7.66072 11.6355 7.13384 10.6706L6.97396 10.379C6.81346 10.0941 6.88739 9.73442 7.14725 9.53584L9.11686 8.00339C9.74706 7.50961 9.89263 6.61468 9.45136 5.94665L5.94188 0.684152C5.48964 0.00388545 4.58231 -0.200326 3.88219 0.220537L1.68161 1.54243C0.990173 1.94893 0.482893 2.60726 0.26614 3.37948C-0.526286 6.26678 0.0698476 11.2498 7.41031 18.5912C13.2495 24.4299 17.5965 26.0001 20.5843 26.0001C21.2719 26.003 21.9569 25.9135 22.6207 25.7341C23.3931 25.5176 24.0515 25.0102 24.4577 24.3186L25.7809 22.1193C26.2024 21.4191 25.9983 20.5112 25.3177 20.0587Z" fill="#009533"/>
<path d="M14.7321 4.33526C18.7981 4.33978 22.0931 7.63484 22.0977 11.7009C22.0977 11.9402 22.2916 12.1341 22.5309 12.1341C22.7702 12.1341 22.9642 11.9402 22.9642 11.7009C22.9591 7.15645 19.2765 3.47373 14.7321 3.46875C14.4928 3.46875 14.2988 3.66271 14.2988 3.90201C14.2988 4.1413 14.4928 4.33526 14.7321 4.33526Z" fill="#009533"/>
<path d="M14.7321 6.93486C17.363 6.93796 19.4949 9.06995 19.498 11.7008C19.498 11.9401 19.692 12.1341 19.9313 12.1341C20.1706 12.1341 20.3645 11.9401 20.3645 11.7008C20.3609 8.59156 17.8413 6.07191 14.7321 6.06836C14.4928 6.06836 14.2988 6.26231 14.2988 6.50161C14.2988 6.74091 14.4928 6.93486 14.7321 6.93486Z" fill="#009533"/>
<path d="M14.7321 9.53447C15.9279 9.53589 16.897 10.505 16.8984 11.7008C16.8984 11.9401 17.0924 12.1341 17.3317 12.1341C17.5709 12.1341 17.7649 11.9401 17.7649 11.7008C17.763 10.0266 16.4063 8.66985 14.7321 8.66797C14.4928 8.66797 14.2988 8.86192 14.2988 9.10122C14.2988 9.34052 14.4928 9.53447 14.7321 9.53447Z" fill="#009533"/>
</g>
</g>
<defs>
<clipPath id="clip0_1548_446">
<rect width="26" height="26" fill="white"/>
</clipPath>
</defs>
</svg>
