<svg width="27" height="27" viewBox="0 0 27 27" fill="none" xmlns="http://www.w3.org/2000/svg">
<g clip-path="url(#clip0_1548_455)">
<path d="M13.5 4.40196C13.8229 4.40196 14.087 4.13783 14.087 3.81501V3.52153C14.087 3.1987 13.8229 2.93457 13.5 2.93457C13.1772 2.93457 12.9131 3.1987 12.9131 3.52153V3.81501C12.9131 4.13783 13.1772 4.40196 13.5 4.40196Z" fill="#B28E2B"/>
<path d="M13.5 22.5977C13.1772 22.5977 12.9131 22.8618 12.9131 23.1847V23.4781C12.9131 23.801 13.1772 24.0651 13.5 24.0651C13.8229 24.0651 14.087 23.801 14.087 23.4781V23.1847C14.087 22.8618 13.8229 22.5977 13.5 22.5977Z" fill="#B28E2B"/>
<path d="M3.81501 12.9131H3.52153C3.1987 12.9131 2.93457 13.1772 2.93457 13.5C2.93457 13.8229 3.1987 14.087 3.52153 14.087H3.81501C4.13783 14.087 4.40196 13.8229 4.40196 13.5C4.40196 13.1772 4.13783 12.9131 3.81501 12.9131Z" fill="#B28E2B"/>
<path d="M23.4781 12.9131H23.1847C22.8618 12.9131 22.5977 13.1772 22.5977 13.5C22.5977 13.8229 22.8618 14.087 23.1847 14.087H23.4781C23.801 14.087 24.0651 13.8229 24.0651 13.5C24.0651 13.1772 23.801 12.9131 23.4781 12.9131Z" fill="#B28E2B"/>
<path d="M6.86697 6.04523C6.63218 5.81044 6.28001 5.81044 6.04523 6.04523C5.81044 6.28001 5.81044 6.63218 6.04523 6.86696L6.25066 7.0724C6.36805 7.18979 6.51479 7.24849 6.66153 7.24849C6.80827 7.24849 6.95501 7.18979 7.0724 7.0724C7.30719 6.83762 7.30719 6.48544 7.0724 6.25066L6.86697 6.04523Z" fill="#B28E2B"/>
<path d="M6.25066 19.9271L6.04523 20.1325C5.81044 20.3673 5.81044 20.7195 6.04523 20.9542C6.16262 21.0716 6.30936 21.1303 6.4561 21.1303C6.60284 21.1303 6.74958 21.0716 6.86697 20.9542L7.0724 20.7488C7.30719 20.514 7.30719 20.1618 7.0724 19.9271C6.83762 19.6923 6.48544 19.6923 6.25066 19.9271Z" fill="#B28E2B"/>
<path d="M20.1325 6.04523L19.9271 6.25066C19.6923 6.48544 19.6923 6.83762 19.9271 7.0724C20.0445 7.18979 20.1912 7.24849 20.3379 7.24849C20.4847 7.24849 20.6314 7.18979 20.7488 7.0724L20.9542 6.86696C21.189 6.63218 21.189 6.28001 20.9542 6.04523C20.7194 5.81044 20.3673 5.81044 20.1325 6.04523Z" fill="#B28E2B"/>
<path d="M14.087 13.2652V7.92387C14.087 7.60104 13.8229 7.33691 13.5 7.33691C13.1772 7.33691 12.9131 7.60104 12.9131 7.92387V13.5C12.9131 13.6467 12.9718 13.7934 13.0892 13.9108L19.5163 20.338C19.6337 20.4554 19.7805 20.5141 19.9272 20.5141C20.0739 20.5141 20.2207 20.4554 20.3381 20.338C20.5729 20.1032 20.5729 19.751 20.3381 19.5163L14.087 13.2652Z" fill="#B28E2B"/>
<path d="M13.5 0C6.04565 0 0 6.04565 0 13.5C0 20.9543 6.04565 27 13.5 27C20.9543 27 27 20.9543 27 13.5C27 6.04565 20.9543 0 13.5 0ZM13.5 25.8261C6.6913 25.8261 1.17391 20.3087 1.17391 13.5C1.17391 6.6913 6.6913 1.17391 13.5 1.17391C20.3087 1.17391 25.8261 6.6913 25.8261 13.5C25.8261 20.3087 20.3087 25.8261 13.5 25.8261Z" fill="#B28E2B"/>
</g>
<defs>
<clipPath id="clip0_1548_455">
<rect width="27" height="27" fill="white"/>
</clipPath>
</defs>
</svg>
