<svg width="24" height="32" viewBox="0 0 24 32" fill="none" xmlns="http://www.w3.org/2000/svg">
<g clip-path="url(#clip0_1548_438)">
<path d="M11.9997 0C5.48145 0 0.178711 5.30274 0.178711 11.8209C0.178711 13.9668 1.14108 16.2747 1.18141 16.372C1.49223 17.1098 2.10553 18.2557 2.54777 18.9274L10.6528 31.208C10.9845 31.7114 11.4754 32 11.9997 32C12.524 32 13.0149 31.7114 13.3466 31.2087L21.4523 18.9274C21.8952 18.2557 22.5078 17.1098 22.8186 16.372C22.859 16.2754 23.8207 13.9675 23.8207 11.8209C23.8207 5.30274 18.5179 0 11.9997 0ZM16.5 15.8317C16.2226 16.493 12.5824 17.3698 12.1854 17.9719V30.4431C12.0254 30.6858 12.66 30.2427 12.5 30L12.1854 17.9719C11.7883 17.3698 7.77745 16.493 7.5 15.8317C7.48818 15.8032 6.5 13.6789 6.5 11.8209C8 6.5 7 8.5 12.1854 5.5C16 7.5 16.5 6.5 18 11.8209C18 13.6817 16.5091 15.8109 16.5 15.8317Z" fill="#BE0000"/>
<path d="M12.0004 5.56348C8.54932 5.56348 5.74219 8.3713 5.74219 11.8216C5.74219 15.272 8.54932 18.0798 12.0004 18.0798C15.4514 18.0798 18.2585 15.272 18.2585 11.8216C18.2585 8.3713 15.4514 5.56348 12.0004 5.56348ZM12.0004 16.6891C9.31699 16.6891 7.13289 14.5057 7.13289 11.8216C7.13289 9.13757 9.31699 6.95418 12.0004 6.95418C14.6837 6.95418 16.8678 9.13757 16.8678 11.8216C16.8678 14.5057 14.6837 16.6891 12.0004 16.6891Z" fill="#BE0000"/>
</g>
<defs>
<clipPath id="clip0_1548_438">
<rect width="24" height="32" fill="white"/>
</clipPath>
</defs>
</svg>
