<svg width="103" height="25" viewBox="0 0 103 25" fill="none" xmlns="http://www.w3.org/2000/svg">
<mask id="mask0" style="mask-type:alpha" maskUnits="userSpaceOnUse" x="0" y="0" width="103" height="25">
<g clip-path="url(#clip0)">
<path d="M42.1606 24.5078V19.7047H42.6943V24.5078H42.1606Z" fill="#545554"/>
<path d="M43.3881 19.7047H48.1912V20.2383H46.1098V24.5078H45.4694V20.2383H43.3881V19.7047V19.7047Z" fill="#545554"/>
<path d="M56.5167 20.6119H57.1571L55.7161 24.4544H55.2358L53.7949 21.2523L52.4073 24.4544H51.927L50.4861 20.6119H51.0198L52.1939 23.4404L53.4213 20.6119H54.1151L55.4493 23.4404L56.5167 20.6119Z" fill="#545554"/>
<path d="M62.7607 20.5585H65.0021V21.0922H62.8674C62.814 21.0922 62.7073 21.0922 62.6539 21.1456C62.6006 21.199 62.6006 21.3057 62.6006 21.3591V24.401H62.0669V21.3591C62.0669 21.1456 62.1203 20.9321 62.2804 20.8254C62.3871 20.7187 62.5472 20.5585 62.7607 20.5585Z" fill="#545554"/>
<path d="M68.5244 20.6119H69.2182L67.4571 22.5332L69.2182 24.4544H68.5244L66.9768 22.8H65.9094V24.4544H65.3757V19.3845H65.9094V22.2663H66.9768L68.5244 20.6119Z" fill="#545554"/>
<path d="M73.4342 21.3591L72.9005 21.4124V21.3591C72.9005 21.3057 72.9005 21.199 72.8471 21.1456C72.7938 21.0922 72.687 21.0922 72.6337 21.0922H70.2855C70.2321 21.0922 70.1254 21.0922 70.072 21.1456C70.0186 21.199 70.0186 21.3057 70.0186 21.3591V21.9995C70.0186 22.0528 70.0186 22.1596 70.072 22.213C70.1254 22.2663 70.2321 22.2663 70.2855 22.2663H72.5803C72.7938 22.2663 73.0072 22.3197 73.114 22.4798C73.2741 22.6399 73.3274 22.8534 73.3274 23.0668V23.7073C73.3274 23.9207 73.2741 24.1342 73.114 24.2943C72.9539 24.4544 72.7404 24.5078 72.5803 24.5078H70.2855C70.072 24.5078 69.8585 24.4544 69.7518 24.2943C69.5917 24.1342 69.5383 23.9207 69.5383 23.7073V23.6539H70.072V23.7073C70.072 23.7606 70.072 23.8674 70.1254 23.9207C70.1787 23.9741 70.2855 23.9741 70.3388 23.9741H72.6337C72.687 23.9741 72.7938 23.9741 72.8471 23.9207C72.9005 23.8674 72.9005 23.7606 72.9005 23.7073V23.0668C72.9005 23.0135 72.9005 22.9067 72.8471 22.8534C72.7938 22.8 72.687 22.8 72.6337 22.8H70.3388C70.1254 22.8 69.9119 22.7466 69.8052 22.5865C69.6451 22.4264 69.5917 22.213 69.5917 21.9995V21.3591C69.5917 21.1456 69.6451 20.9321 69.8052 20.772C69.9653 20.6119 70.1787 20.5585 70.3388 20.5585H72.6337C72.8471 20.5585 73.0606 20.6119 73.1673 20.772C73.2741 20.9321 73.4342 21.1456 73.4342 21.3591Z" fill="#545554"/>
<path d="M61.1063 20.8254C60.9462 20.6653 60.7861 20.6119 60.5193 20.6119H58.2778C58.0643 20.6119 57.8509 20.6653 57.6908 20.8254C57.5307 20.9855 57.4773 21.1456 57.4773 21.4124V21.786V23.6539C57.4773 23.8674 57.5307 24.0808 57.6908 24.2409C57.8509 24.401 58.011 24.4544 58.2778 24.4544H60.5193C60.7327 24.4544 60.9462 24.401 61.1063 24.2409C61.2664 24.0808 61.3198 23.9207 61.3198 23.6539V23.2269V21.3591C61.3198 21.1456 61.213 20.9855 61.1063 20.8254ZM60.7861 23.6539C60.7861 23.7073 60.7861 23.814 60.7327 23.814C60.6794 23.814 60.626 23.8674 60.5726 23.8674H58.3312C58.2778 23.8674 58.1711 23.8674 58.1711 23.814C58.1711 23.7606 58.1177 23.7073 58.1177 23.6539V21.4124C58.1177 21.3591 58.1177 21.2523 58.1711 21.2523C58.2244 21.199 58.2778 21.199 58.3312 21.199H60.5726C60.626 21.199 60.7327 21.199 60.7327 21.2523C60.7327 21.3057 60.7861 21.3591 60.7861 21.4124V23.6539Z" fill="#545554"/>
<path d="M14.3026 3.90777V4.44145H12.7016V3.90777C12.7016 3.6943 12.6482 3.48083 12.4881 3.37409C12.328 3.21399 12.1145 3.16062 11.9544 3.16062H2.34819C2.13471 3.16062 1.97461 3.21399 1.86788 3.37409C1.6544 3.5342 1.60104 3.74767 1.60104 3.90777V13.514C1.60104 13.7275 1.6544 13.9409 1.81451 14.0477C2.02798 14.2078 2.18808 14.2611 2.34819 14.2611H11.9544C12.1679 14.2611 12.3813 14.2078 12.4881 14.0477C12.6482 13.8876 12.7016 13.6741 12.7016 13.514V9.93834H9.12591V8.28394H14.3026V13.514C14.3026 14.2078 14.0891 14.7415 13.6088 15.1684C13.1285 15.6487 12.5414 15.8622 11.9544 15.8622H2.34819C1.6544 15.8622 1.12073 15.6487 0.693782 15.1684C0.213471 14.6881 0 14.101 0 13.514V3.90777C0 3.21399 0.213471 2.68031 0.693782 2.25337C1.17409 1.77306 1.76114 1.55959 2.34819 1.55959H11.9544C12.6482 1.55959 13.1819 1.77306 13.6088 2.25337C14.0891 2.68031 14.3026 3.32073 14.3026 3.90777Z" fill="#263D88"/>
<path d="M25.7767 4.33472C26.4704 4.33472 27.0041 4.54819 27.5378 5.0285C28.0181 5.50881 28.2316 6.09586 28.2316 6.78964V10.9523H18.0917V13.514C18.0917 13.7275 18.1451 13.9409 18.3052 14.0477C18.4653 14.2078 18.6787 14.2611 18.8388 14.2611H28.2316V15.9155H18.8388C18.1451 15.9155 17.6114 15.7021 17.0777 15.2218C16.5974 14.7415 16.3839 14.1544 16.3839 13.4606V6.6829C16.3839 5.98912 16.5974 5.45544 17.0777 4.92176C17.558 4.44145 18.1451 4.22798 18.8388 4.22798H25.7767V4.33472ZM18.0917 9.29793H26.5772V6.73627C26.5772 6.5228 26.5238 6.30933 26.3637 6.20259C26.2036 6.09586 25.9901 5.98912 25.83 5.98912H18.8922C18.6787 5.98912 18.4653 6.04249 18.3585 6.20259C18.1984 6.3627 18.1451 6.57617 18.1451 6.73627C18.0917 6.73627 18.0917 9.29793 18.0917 9.29793Z" fill="#263D88"/>
<path d="M39.7057 4.33472C40.3995 4.33472 40.9331 4.54819 41.4668 5.0285C41.9471 5.50881 42.1606 6.09586 42.1606 6.78964V15.9689H40.5062V6.78964C40.5062 6.57617 40.4528 6.3627 40.2927 6.25596C40.0793 6.04249 39.9192 5.98912 39.7591 5.98912H32.8212C32.6078 5.98912 32.3943 6.04249 32.2876 6.20259C32.1808 6.3627 32.0741 6.57617 32.0741 6.73627V15.9155H30.4197V4.33472H39.7057Z" fill="#263D88"/>
<path d="M44.1886 5.93575V4.33472H55.9295V6.57617L45.9497 14.3145H55.9829V15.9689H44.1886V13.7275L54.2218 5.93575H44.1886V5.93575Z" fill="#263D88"/>
<path d="M58.1176 0.492233H59.772V2.14664H58.1176V0.492233ZM58.1176 15.9155V4.33472H59.772V15.9155H58.1176Z" fill="#263D88"/>
<path d="M73.9679 6.78964V6.94974H72.3135V6.78964C72.3135 6.57617 72.2601 6.3627 72.1 6.25596C71.9399 6.14922 71.7265 6.04249 71.5664 6.04249H64.6285C64.4151 6.04249 64.2016 6.09586 64.0948 6.25596C63.9347 6.41606 63.8814 6.62954 63.8814 6.78964V8.60415C63.8814 8.81762 63.9347 9.03109 64.0948 9.13783C64.255 9.29793 64.4684 9.3513 64.6285 9.3513H71.5664C72.2601 9.3513 72.7938 9.56477 73.3275 10.0451C73.8612 10.5254 74.0213 11.1124 74.0213 11.8062V13.6207C74.0213 14.3145 73.8078 14.8482 73.3275 15.3819C72.8472 15.8622 72.2601 16.0756 71.5664 16.0756H64.6285C63.9347 16.0756 63.4011 15.8622 62.8674 15.3819C62.3871 14.9016 62.1736 14.3145 62.1736 13.6207V13.4606H63.828V13.6207C63.828 13.8342 63.8814 14.0477 64.0415 14.1544C64.2016 14.3145 64.4151 14.3679 64.5752 14.3679H71.513C71.7265 14.3679 71.9399 14.3145 72.0467 14.1544C72.1534 13.9943 72.2601 13.7808 72.2601 13.6207V11.8062C72.2601 11.5927 72.2068 11.3793 72.0467 11.2725C71.8866 11.1124 71.6731 11.0591 71.513 11.0591H64.5752C63.8814 11.0591 63.3477 10.8456 62.814 10.3653C62.3337 9.88498 62.1202 9.29793 62.1202 8.60415V6.78964C62.1202 6.09586 62.3337 5.56218 62.814 5.0285C63.2943 4.54819 63.8814 4.33472 64.5752 4.33472H71.513C72.2068 4.33472 72.7404 4.54819 73.2741 5.0285C73.7011 5.50881 73.9679 6.09586 73.9679 6.78964Z" fill="#263D88"/>
<path d="M78.6109 0.492233H77.5969V24.5078H78.6109V0.492233Z" fill="#545554"/>
<path d="M102.733 12.5534L82.0265 24.5078V0.598969L91.9529 6.30933L91.3125 7.32332L83.2006 2.68032V22.4264L100.332 12.5534L95.155 9.56477L89.2312 12.9803L88.6441 11.9663L95.155 8.23058L102.733 12.5534Z" fill="#545554"/>
</g>
</mask>
<g mask="url(#mask0)">
<rect x="-0.591187" y="0.492233" width="103.591" height="24.0155" fill="white"/>
</g>
<defs>
<clipPath id="clip0">
<rect width="103" height="24.0155" fill="white" transform="translate(0 0.492233)"/>
</clipPath>
</defs>
</svg>
