<svg width="33" height="34" viewBox="0 0 33 34" fill="none" xmlns="http://www.w3.org/2000/svg">
<path d="M31.6619 27.3371H1.33755C1.21928 27.3371 1.10585 27.2901 1.02222 27.2065C0.938586 27.1229 0.891602 27.0095 0.891602 26.8912V7.10904C0.891602 6.99077 0.938586 6.87734 1.02222 6.79371C1.10585 6.71008 1.21928 6.66309 1.33755 6.66309H31.6619C31.7801 6.66309 31.8936 6.71008 31.9772 6.79371C32.0608 6.87734 32.1078 6.99077 32.1078 7.10904V26.8912C32.1078 27.0095 32.0608 27.1229 31.9772 27.2065C31.8936 27.2901 31.7801 27.3371 31.6619 27.3371ZM1.78349 26.4452H31.2159V7.55499H1.78349V26.4452Z" fill="#0488D3"/>
<path d="M16.4999 19.5453C14.8558 19.5483 13.2726 18.923 12.0743 17.7972L1.03222 7.42354C0.989532 7.38342 0.955159 7.33529 0.931068 7.28189C0.906977 7.22849 0.89364 7.17087 0.891818 7.11232C0.888138 6.99406 0.931586 6.87919 1.0126 6.79297C1.09362 6.70675 1.20556 6.65624 1.32382 6.65256C1.44207 6.64888 1.55695 6.69233 1.64317 6.77335L12.6848 17.147C13.7192 18.1153 15.083 18.6541 16.4999 18.6541C17.9168 18.6541 19.2806 18.1153 20.315 17.147L31.3566 6.77335C31.4428 6.69233 31.5577 6.64888 31.676 6.65256C31.7942 6.65624 31.9062 6.70675 31.9872 6.79297C32.0682 6.87919 32.1116 6.99406 32.108 7.11232C32.1043 7.23057 32.0538 7.34252 31.9675 7.42354L20.9255 17.7976C19.7272 18.9233 18.144 19.5485 16.4999 19.5453Z" fill="#0488D3"/>
<path d="M1.33779 27.3354C1.24614 27.3354 1.15669 27.3072 1.08163 27.2546C1.00657 27.202 0.949545 27.1276 0.918305 27.0414C0.887066 26.9552 0.883134 26.8615 0.907046 26.7731C0.930958 26.6846 0.981552 26.6056 1.05194 26.5469L12.2038 17.2329C12.2486 17.1948 12.3006 17.166 12.3567 17.1481C12.4127 17.1302 12.4718 17.1236 12.5304 17.1286C12.5891 17.1336 12.6462 17.1502 12.6984 17.1774C12.7506 17.2046 12.7969 17.2419 12.8346 17.287C12.8723 17.3322 12.9007 17.3844 12.9182 17.4406C12.9357 17.4968 12.9418 17.5559 12.9363 17.6145C12.9308 17.6732 12.9138 17.7301 12.8862 17.7821C12.8586 17.8341 12.8209 17.8801 12.7755 17.9174L1.62364 27.2315C1.54348 27.2985 1.44231 27.3353 1.33779 27.3354Z" fill="#0488D3"/>
<path d="M31.662 27.3354C31.5574 27.3353 31.4563 27.2985 31.3761 27.2315L20.2243 17.9174C20.1789 17.8801 20.1412 17.8341 20.1136 17.7821C20.086 17.7301 20.069 17.6732 20.0635 17.6145C20.058 17.5559 20.0641 17.4968 20.0816 17.4406C20.0991 17.3844 20.1275 17.3322 20.1652 17.287C20.2029 17.2419 20.2492 17.2046 20.3014 17.1774C20.3536 17.1502 20.4107 17.1336 20.4694 17.1286C20.528 17.1236 20.5871 17.1302 20.6431 17.1481C20.6992 17.166 20.7512 17.1948 20.796 17.2329L31.9478 26.5469C32.0182 26.6056 32.0688 26.6846 32.0927 26.7731C32.1166 26.8615 32.1127 26.9552 32.0814 27.0414C32.0502 27.1276 31.9932 27.202 31.9181 27.2546C31.8431 27.3072 31.7536 27.3354 31.662 27.3354Z" fill="#0488D3"/>
</svg>
