<svg width="50" height="60" viewBox="0 0 50 60" fill="none" xmlns="http://www.w3.org/2000/svg">
<path d="M48.6873 7.08202C48.4232 7.08202 48.177 7.15363 47.9393 7.28905C46.2545 8.24994 44.0389 8.75757 41.5143 8.75757C39.6603 8.75757 37.7402 8.48386 35.7978 7.9436C31.4434 6.733 27.7526 2.05433 26.5392 0.517481C26.284 0.193286 25.8445 0 25.3622 0C24.9046 0 24.5026 0.178307 24.2582 0.489986C23.0495 2.03135 19.3718 6.7213 14.9758 7.9436C13.0607 8.47626 11.0412 8.75757 9.13567 8.75757C6.64952 8.75757 4.38056 8.28298 2.74619 7.42099C2.45691 7.26853 2.02923 7.0931 1.57343 7.0931C0.808702 7.0931 0 7.60709 0 8.75511V34.6234C0 41.83 6.39082 48.0157 11.7209 51.9358C17.201 55.9667 23.5954 59 25.0557 59C26.1655 59 32.5641 55.9481 38.0911 51.9403C43.5366 47.9919 50 41.7824 50 34.6234V8.46826C49.9998 7.55826 49.358 7.08202 48.6873 7.08202ZM42.6337 34.2842C42.6337 43.635 26.116 51.2154 25.4463 51.2154V9.93781C25.4463 9.90703 25.6874 9.92775 25.7372 9.99075C27.1963 11.8391 29.7434 14.7808 32.8728 15.651C36.5786 16.6815 40.0775 16.3872 42.3413 15.0964C42.471 15.0223 42.634 15.0349 42.634 15.3194V34.2842H42.6337Z" fill="#03436A"/>
</svg>
