<svg width="47" height="60" viewBox="0 0 47 60" fill="none" xmlns="http://www.w3.org/2000/svg">
<path d="M45.5342 33.5965C46.3906 31.8563 46.875 30 46.875 27.7559C46.875 22.5979 43.2404 17.727 38.4941 17.727H34.9316C35.4121 16.2258 35.7959 14.4305 35.7959 12.273C35.7959 3.7425 32.1152 0 26.4922 0C20.4759 0 20.819 11.125 19.4844 12.7266C17.263 15.3922 14.6392 20.5133 12.7695 22.5H3.125C1.39912 22.5 0 24.1789 0 26.25V54.375C0 56.4461 1.39912 58.125 3.125 58.125H9.375C10.8294 58.125 12.0516 56.9327 12.4002 55.3184C16.7468 55.4357 19.7303 59.9988 29.7637 59.9988C30.4687 59.9988 31.25 60 31.9336 60C39.4646 60 42.8697 55.3801 42.9629 48.8285C44.2636 46.6693 44.9452 43.7752 44.6562 40.9781C45.6186 38.8158 45.9906 36.2504 45.5342 33.5965ZM39.5039 39.9047C40.7305 42.3809 39.627 45.6949 38.1426 46.6512C38.8945 52.3676 36.423 54.3738 32.9551 54.3738H29.2617C22.2657 54.3738 17.7354 49.9418 12.5 49.9418V28.125H13.5664C16.3359 28.125 20.2051 19.8176 22.7988 16.7039C25.5684 13.3805 24.6455 7.84102 26.4922 5.625C31.1084 5.625 31.1084 9.48984 31.1084 12.273C31.1084 16.8633 28.3389 18.9199 28.3389 23.352H38.4941C40.5557 23.352 42.1787 25.568 42.1875 27.784C42.1963 29.9988 40.9355 32.2148 40.0127 32.2148C41.33 33.9205 41.6114 37.5159 39.5039 39.9047V39.9047ZM8.59375 50.625C8.59375 52.1783 7.54443 53.4375 6.25 53.4375C4.95557 53.4375 3.90625 52.1783 3.90625 50.625C3.90625 49.0717 4.95557 47.8125 6.25 47.8125C7.54443 47.8125 8.59375 49.0717 8.59375 50.625Z" fill="#03436A"/>
</svg>
