<svg width="74" height="60" viewBox="0 0 74 60" fill="none" xmlns="http://www.w3.org/2000/svg">
<path d="M23.9599 14.1132C23.9599 6.32063 29.796 0 36.9982 0C44.2046 0 50.0364 6.32063 50.0364 14.1132C50.0364 21.9102 44.2046 28.2263 36.9982 28.2263C29.796 28.2263 23.9599 21.9124 23.9599 14.1132ZM73.9423 40.6791L72.1199 28.8546C71.7924 26.714 70.1276 24.919 68.1892 24.403C66.456 26.0633 64.1838 27.0753 61.6877 27.0753C59.1937 27.0753 56.9194 26.0611 55.1883 24.403C53.2436 24.9168 51.583 26.714 51.2554 28.8546L51.2119 29.1328C50.1297 28.0042 48.7863 27.1561 47.3392 26.7724C44.5819 29.411 40.9704 31.0265 37.0003 31.0265C33.0301 31.0265 29.4186 29.411 26.6613 26.7724C25.2142 27.1561 23.8708 28.0042 22.7886 29.1328L22.7451 28.8546C22.4175 26.714 20.7507 24.919 18.8122 24.403C17.0811 26.0633 14.8069 27.0753 12.3128 27.0753C9.81671 27.0753 7.5445 26.0611 5.81132 24.403C3.87082 24.9168 2.20813 26.714 1.88057 28.8546L0.0582441 40.6791C-0.333587 43.2168 1.29386 45.2945 3.66765 45.2945H18.6402L17.5041 52.6607C16.8821 56.6972 19.4694 60 23.2488 60H50.7496C54.529 60 57.1163 56.6905 56.4944 52.6607L55.3583 45.2945H70.3308C72.7067 45.29 74.332 43.2168 73.9423 40.6791ZM61.6856 25.3207C66.2134 25.3207 69.883 21.3492 69.883 16.4489C69.883 11.5508 66.2114 7.57713 61.6856 7.57713C57.1599 7.57713 53.4903 11.5508 53.4903 16.4489C53.4903 21.3492 57.164 25.3207 61.6856 25.3207ZM12.3087 25.3207C16.8344 25.3207 20.504 21.3492 20.504 16.4489C20.504 11.5508 16.8324 7.57713 12.3087 7.57713C7.78084 7.57713 4.11131 11.5508 4.11131 16.4489C4.11131 21.3492 7.78292 25.3207 12.3087 25.3207Z" fill="#03436A"/>
</svg>
